<?xml version="1.0" standalone="no"?>
<!DOCTYPE svg PUBLIC "-//W3C//DTD SVG 20010904//EN"
 "http://www.w3.org/TR/2001/REC-SVG-20010904/DTD/svg10.dtd">
<svg version="1.0" xmlns="http://www.w3.org/2000/svg"
 width="260.000000pt" height="260.000000pt" viewBox="0 0 260.000000 260.000000"
 preserveAspectRatio="xMidYMid meet">
<metadata>
Created by potrace 1.14, written by Peter Selinger 2001-2017
</metadata>
<g transform="translate(0.000000,260.000000) scale(0.100000,-0.100000)"
fill="#000000" stroke="none">
<path d="M1103 2404 c-24 -24 -23 -49 4 -71 13 -10 13 -21 -2 -87 -9 -41 -15
-79 -12 -83 3 -4 1 -18 -3 -29 -7 -17 -15 -20 -34 -17 -14 3 -26 9 -26 14 0 5
-5 9 -12 9 -20 0 8 -23 43 -34 29 -10 31 -14 34 -66 1 -30 6 -80 10 -110 6
-54 6 -55 -23 -72 -22 -11 -29 -22 -26 -35 4 -14 -9 -28 -50 -57 -88 -61 -196
-193 -196 -241 0 -7 -22 -36 -50 -65 -44 -46 -50 -57 -50 -94 0 -26 7 -50 18
-62 14 -15 17 -37 16 -109 0 -49 3 -106 8 -125 5 -19 11 -44 13 -55 9 -37 58
-127 87 -161 17 -19 52 -46 79 -60 38 -21 49 -33 50 -53 1 -14 3 -112 4 -217
2 -162 5 -195 20 -221 30 -51 70 -67 173 -67 47 0 53 -2 50 -20 -2 -14 -19
-25 -61 -39 -39 -13 -65 -29 -82 -51 -23 -31 -48 -110 -37 -121 3 -3 167 -5
364 -5 405 0 378 -7 339 82 -28 66 -74 97 -164 112 -43 7 -67 17 -68 27 -3 19
-5 24 -13 38 -5 7 -10 68 -12 135 -2 66 -6 137 -9 156 -3 19 -8 46 -10 60 -2
14 -7 45 -10 70 -4 25 -11 49 -16 54 -14 15 25 54 87 86 65 35 167 118 207
169 49 62 71 170 72 341 0 195 -41 344 -121 439 -33 39 -102 80 -157 93 -23 5
-51 12 -62 15 -11 3 -69 6 -130 8 -134 3 -122 0 -128 28 -3 12 -15 56 -26 97
-26 95 -26 97 4 104 13 3 29 16 36 27 10 20 10 20 -20 -2 -35 -26 -40 -24 -51
25 -9 41 -10 41 35 22 19 -8 35 -11 35 -7 0 5 -15 14 -32 22 -43 17 -48 26
-43 73 3 34 12 49 37 58 3 2 10 15 13 30 5 20 2 31 -14 45 -30 25 -61 24 -88
-3z"/>
<path d="M1050 2194 c-9 -3 -22 -15 -29 -27 -13 -21 -13 -21 5 -6 10 9 28 21
39 27 20 11 14 13 -15 6z"/>
</g>
</svg>
